<svg xmlns="http://www.w3.org/2000/svg" width="1000" height="404.502"><g style="fill:#000;fill-opacity:1"><path d="m-2 624.024 67.24-48.907s35.69 49.129 85.207 49.129c33.085 0 62.154-18.012 62.154-46.952 0-71.599-191.593-52.953-191.593-192.242 0-69.015 53.018-120.186 131.87-120.186 86.894 0 126.834 64.065 126.834 64.065l-64.174 46.51s-25.521-30.629-61.094-30.629c-30.417 0-47.876 17.055-47.876 39.935 0 70.762 191.554 56.81 191.554 190.981 0 71.368-55.316 129.027-147.094 129.027C51.82 704.755-2 624.025-2 624.025M306.701 272.999h92.076l111.45 298.833L621.276 273h92.594L555.676 695.888H463.73zM756.194 151.383h85.684v121.201H972.7l-30.862 83.749h-99.961v204.564c0 28.809 22.027 62.043 57.025 62.043 25.086 0 44.441-17.029 44.441-17.029L997 666.865s-33.94 37.975-99.164 37.975c-88.68 0-141.814-75.844-141.814-139.635z" style="fill:#000;fill-opacity:1;stroke:none" transform="translate(1.958 -109.867)scale(.72906)"/></g><path d="M819.64 886.309v311.045l219.176-156.179z" style="fill:#00c901;fill-opacity:1;fill-rule:evenodd;stroke:none" transform="translate(-39.316 -797.586)"/></svg>