<svg xmlns="http://www.w3.org/2000/svg" width="200" height="200" viewBox="0 0 200 200"><path fill="#e0001c" d="M100 200c55.233 0 100-44.75 100-99.967S155.233 0 100 0 0 44.783 0 100.033 44.75 200 100 200"/><path fill="#fff" d="M104.883 132.833h-26l26-38.483Zm40.25-.083h-13.566V17.3c0-.95-.6-1.7-1.484-1.983-.866-.267-1.8.05-2.316.833L33.883 155.017c-.433.616-.466 1.433-.083 2.116a2.04 2.04 0 0 0 1.817 1.117H104.9v15.65c0 1.083.95 2.05 2.067 2.05H129.5c1.133 0 2.083-.967 2.083-2.05v-15.65h13.567c1.183 0 2.067-.917 2.067-2.1v-21.317c0-1.15-.884-2.083-2.067-2.083"/></svg>