<svg xmlns="http://www.w3.org/2000/svg" xml:space="preserve" width="757.733" height="128.868" viewBox="0 0 757.733 128.868"><defs><linearGradient id="a" x1="4.243" x2="47.689" y1="58.306" y2="58.306" gradientTransform="translate(-1.41)scale(1.945)" gradientUnits="userSpaceOnUse"><stop stop-color="#ebf5f7"/><stop offset=".152" stop-color="#f1f8fa"/><stop offset=".538" stop-color="#fcfdfe"/><stop offset="1" stop-color="#fff"/></linearGradient><linearGradient id="b" x1="52.104" x2="77.754" y1="76.578" y2="15.321" gradientTransform="translate(-1.41)scale(1.945)" gradientUnits="userSpaceOnUse"><stop offset=".1" stop-color="#c09"/><stop offset=".199" stop-color="#cf0090"/><stop offset=".36" stop-color="#d70078"/><stop offset=".564" stop-color="#e40050"/><stop offset=".799" stop-color="#f70019"/><stop offset=".9" stop-color="red"/></linearGradient><linearGradient id="c" x1="52.104" x2="77.754" y1="76.578" y2="15.321" gradientTransform="translate(-1.41)scale(1.945)" gradientUnits="userSpaceOnUse"><stop offset=".1" stop-color="#c09"/><stop offset=".199" stop-color="#cf0090"/><stop offset=".36" stop-color="#d70078"/><stop offset=".564" stop-color="#e40050"/><stop offset=".799" stop-color="#f70019"/><stop offset=".9" stop-color="red"/></linearGradient></defs><path fill="#212d33" d="M195.55 101.403h-13.47l-25.394-65.159h12.166l9.308 24.727c3.675 9.746 7.349 19.572 10.778 29.317 3.511-9.826 7.103-19.813 10.859-29.64l9.227-24.404h12.002Zm45.236-79.012c0 4.108-3.348 7.57-7.757 7.57-4.41 0-7.757-3.462-7.757-7.57s3.348-7.571 7.757-7.571c4.41 0 7.757 3.463 7.757 7.57m-13.471 79.012V36.244h11.43v65.16Zm77.403-43.896v43.896h-10.86v-8.618c-4.163 6.605-12.329 10.23-22.373 10.23-13.307 0-23.351-5.88-23.351-18.767 0-16.914 17.147-19.572 34.866-23.438l10.614-2.256v-.241c0-9.907-6.777-13.773-16.004-13.773-10.125 0-17.474 4.672-21.556 8.215l-3.756-9.504c5.063-4.027 13.882-8.537 25.802-8.537 16.902-.08 26.618 8.86 26.618 22.793m-11.104 16.19v-5.96l-9.636 2.094c-16.9 3.705-24.413 6.12-24.413 14.336 0 6.04 5.062 9.343 13.554 9.343 11.104-.08 20.495-5.718 20.495-19.813m87.61-4.914c0 20.861-12.41 34.231-30.863 34.231-9.636 0-17.31-3.544-22.373-10.31v27.95h-11.431v-84.41h11.022v10.23c5.063-7.652 13.228-11.84 23.433-11.84 17.964 0 30.212 13.37 30.212 34.15m-11.594 0c0-14.739-8.247-24.082-20.658-24.082-12.41 0-21.475 9.343-21.475 24.324 0 14.578 8.656 24.002 21.23 24.002s20.903-9.424 20.903-24.244m21.228 32.62V17.317h11.432v84.086Zm77.486-43.896v43.896h-10.859v-8.618c-4.164 6.605-12.329 10.23-22.373 10.23-13.308 0-23.351-5.88-23.351-18.767 0-16.914 17.147-19.572 34.864-23.438l10.615-2.256v-.241c0-9.907-6.776-13.773-16.003-13.773-10.126 0-17.474 4.672-21.556 8.215l-3.756-9.504c5.063-4.027 13.881-8.537 25.802-8.537 16.9-.08 26.617 8.86 26.617 22.793m-11.104 16.19v-5.96l-9.635 2.094c-16.902 3.705-24.414 6.12-24.414 14.336 0 6.04 5.063 9.343 13.555 9.343 11.104-.08 20.494-5.718 20.494-19.813m54.542 23.438c-6.123 15.544-13.798 21.666-27.843 24.968l-3.592-9.101c6.858-2.256 12.983-4.43 17.555-10.874l-25.72-65.884h12.166l8.818 23.438c3.674 9.826 8.084 21.505 10.86 29.157 3.02-7.813 7.266-19.33 11.022-29.157l8.818-23.438h11.84Z"/><path fill="url(#a)" d="M91.366 77.321V51.547L22.954 15.39c-6.59 5.545-12.132 12.523-16.07 20.223L65.32 64.434 6.883 93.256a64.8 64.8 0 0 0 16.071 20.223Z"/><path fill="url(#b)" fill-rule="evenodd" d="M130.64 64.434c0 35.586-29.245 64.434-65.32 64.434-16.166 0-30.96-5.793-42.366-15.389l68.412-36.158V51.547L22.954 15.39C34.36 5.793 49.154 0 65.32 0c36.075 0 65.32 28.848 65.32 64.434" clip-rule="evenodd"/><path fill="url(#c)" d="M6.883 93.256 65.32 64.434 6.883 35.612A63.46 63.46 0 0 0 0 64.434c0 10.36 2.479 20.15 6.883 28.822"/><path fill="#8a8c90" d="M579.808 128.06V.88h4.822v127.18ZM732.304 101.57H719.87l-25.43-65.493h12.248l19.54 51.104 19.539-51.104h11.966ZM668.468 46.408v55.163h-11.78V46.408h-20.474V36.077h52.541v10.331Z"/></svg>